<svg width="1104.750000" height="283.640625" viewBox="0 0 1104.75 283.641" fill="none" xmlns="http://www.w3.org/2000/svg" xmlns:xlink="http://www.w3.org/1999/xlink">
	<desc>
			Created with Pixso.
	</desc>
	<defs/>
	<path id="子幽云盘" d="M120.375 10.6172Q118.055 10.6172 112.922 12.0937Q95.3438 23.625 75.7266 34.2422Q49.8516 51.2578 30.2344 51.2578Q29.1094 46.6172 28.4766 46.6172L27.0703 46.9687Q27.0703 46.6172 26.5078 46.6172L23.625 46.6172Q21.3047 48.0937 21.3047 48.9375L21.3047 51.2578Q38.3203 74.039 66.2344 74.039Q77.4844 74.039 114.047 54.9844L114.891 54.9844L114.891 56.1797Q98.7891 97.5937 98.7891 114.609Q98.7891 122.414 104.273 134.789L57.0234 150.328Q0.84375 175.992 0 181.687L0 182.602Q4.92188 191.25 13.8516 196.383Q26.5078 198.141 63.9141 239.344Q81.7734 263.812 114.047 272.742Q114.047 272.18 114.891 272.18Q114.891 273.023 119.812 273.586Q130.43 273.586 139.992 267.539Q148.922 262.969 155.531 239.344Q159.258 230.695 161.578 210.234Q161.578 181.125 140.836 156.656Q142.523 156.656 148.289 156.094L150.047 156.656Q152.367 155.812 156.656 155.25L158.133 156.094Q159.539 155.25 160.734 155.25L168.469 155.25L172.828 154.617L197.859 156.656L216.844 164.18Q222.328 163.828 222.328 161.578Q222.328 154.055 211.078 142.805Q177.68 112.289 162.141 112.289Q156.375 112.289 139.359 120.656Q125.859 126.984 123.258 126.984Q125.297 109.687 152.648 75.4453Q166.43 59.0625 166.43 56.7422Q166.43 53.5781 163.898 46.6172Q139.078 15.2578 120.375 10.6172ZM20.7422 192.656Q37.125 183.445 67.3594 171.07Q91.2656 164.18 120.375 158.977L120.375 171.914Q109.758 218.32 99.3516 231.82Q88.3828 242.789 80.6484 243.914L78.6094 243.914L76.2891 242.227Q39.4453 205.594 20.7422 193.5L20.7422 192.656ZM376.734 6.60936Q374.977 7.17186 373.852 10.3359L373.852 10.9687Q383.344 31.3594 383.344 34.8047L382.43 34.8047L384.469 58.4297L383.906 59.9062L385.312 73.4062Q384.469 73.4062 384.469 74.3203L385.945 95.0625Q385.312 95.0625 385.312 95.9062L385.945 100.195L385.945 111.727L386.789 116.648Q385.945 116.648 385.945 117.492Q386.789 118.617 386.789 120.375L386.789 146.883L385.945 150.328Q386.789 150.328 386.789 151.172L385.945 155.531L386.789 158.977L385.945 163.266Q386.789 164.461 386.789 165.586L385.945 167.062L386.789 168.469L386.789 169.945Q378.984 158.977 371.25 151.734Q374.695 146.883 374.695 144.562Q371.25 135.914 368.93 135.914Q365.203 129.023 353.953 129.023L379.547 96.4687L379.547 93.0234Q363.164 63.0703 345.586 56.1797Q342.703 56.4609 342.703 58.4297L342.703 59.0625L345.586 69.9609L343.266 80.6484Q344.18 80.6484 344.18 81.4922L343.266 81.4922Q341.016 92.7422 337.5 100.195Q331.453 117.492 308.461 144Q312.75 155.25 324.844 161.859Q331.453 161.859 349.031 152.648L349.594 152.648Q338.977 169.594 314.227 197.297L314.227 196.383Q314.227 179.719 306.984 156.937Q297.773 144 294.328 144Q292.57 144 291.445 146.039Q286.875 187.453 281.391 206.508Q274.43 242.227 271.547 245.953L273.023 251.156Q297.211 277.594 309.305 277.594L309.867 277.594Q311.344 277.594 311.344 276.188L311.344 271.828L336.938 261.211Q360.281 253.687 432.844 244.477L434.32 245.391Q442.336 243.914 452.18 243.07Q453.305 243.07 454.43 243.914L459.914 242.508Q459.914 243.07 460.828 243.07L461.391 243.07Q462.516 243.07 464.273 242.508L465.68 243.07Q470.883 242.508 472.008 242.508L475.805 243.07Q475.805 242.508 476.367 242.508Q478.055 243.07 479.25 243.07L479.812 243.07L481.219 242.508Q481.219 243.07 482.695 243.07Q485.578 249.117 489.305 254.039Q510.891 277.594 521.859 277.594Q521.859 276.75 523.266 276.188Q524.461 276.188 526.781 262.617L526.148 258.891Q526.781 252.562 526.781 249.68L526.781 245.391L526.148 243.914L526.781 243.914Q525.305 210.797 522.703 192.937L522.703 184.289Q522.703 182.039 521.859 182.039Q519.82 159.539 514.617 140.273Q504.844 123.82 497.672 123.82Q494.789 123.82 492.75 144L493.312 145.406L492.75 145.406Q491.906 167.344 490.781 186.328Q491.344 186.328 491.344 187.172Q490.781 187.172 490.781 190.055L489.867 190.055Q489.867 187.734 486.422 177.117Q474.891 151.734 465.68 151.734Q464.273 151.734 463.641 156.094L463.641 162.703L462.797 169.945Q463.641 169.945 463.641 170.508Q462.797 170.508 462.797 172.758Q462.797 174.797 450.141 179.156L449.297 179.156L467.719 141.68Q467.719 134.508 453.586 123.82L452.18 123.82Q450.703 123.82 441.492 129.023L440.93 129.023Q440.93 128.18 458.508 108.844L470.602 100.195Q479.25 100.195 479.25 93.5859L478.617 89.2969Q462.234 56.1797 442.336 48.9375Q439.453 49.2187 439.453 51.2578L439.453 51.8203Q439.453 58.4297 442.969 64.1953L442.336 66.2344Q442.336 67.3594 442.969 69.1172Q433.406 108.562 408.656 137.391Q408.656 134.508 409.5 131.906L408.656 127.547Q408.656 125.859 409.5 124.664Q408.656 123.258 408.656 121.781L408.656 116.648Q408.656 114.891 409.5 113.766Q408.656 112.289 408.656 110.883L408.656 107.437Q408.656 105.68 409.5 104.555L408.656 103.078Q409.5 84.6562 410.977 72L410.133 70.5234Q412.102 58.4297 415.898 48.375L415.898 44.6484L414.422 39.7265Q395.156 11.8125 378.984 6.60936L376.734 6.60936ZM418.148 157.5Q425.672 157.5 440.93 147.445L441.492 147.445L441.492 148.289L440.93 148.289L430.875 167.625Q414.422 197.016 414.422 198.703L414.422 199.266Q414.422 207.07 430.242 217.406Q430.242 218.602 413.016 221.766Q412.383 221.766 411.539 219.445L412.383 218.039Q410.977 207.07 410.977 203.625L411.539 202.148Q410.977 201.586 410.133 190.055Q410.133 188.367 410.977 187.172L410.133 182.883L410.133 171.352L409.5 169.945L410.133 169.945L409.5 167.625L410.133 165.586Q409.5 157.5 409.5 155.531L409.5 152.648L410.133 152.648Q414.984 157.219 418.148 157.5ZM366.891 171.352Q365.203 171.352 359.156 173.391L359.156 172.758Q365.484 163.828 365.484 161.297L366.047 161.297L366.047 169.945L366.891 171.352ZM334.055 216Q340.383 214.523 345.586 210.234Q364.922 191.812 371.812 187.172Q375.82 192.937 385.945 202.148L385.945 213.117Q386.227 218.32 395.438 225.773L395.438 226.617Q365.766 234.422 312.188 243.07L312.75 239.625L312.188 238.148Q313.031 238.148 314.789 216L314.227 214.523Q314.789 205.312 314.789 199.266L315.633 199.266Q318.516 208.477 332.086 216Q332.93 216 334.055 215.156L334.055 216ZM465.117 187.172Q468.281 202.148 474.891 208.758L474.328 208.758Q470.883 211.641 435.727 216.562L435.727 216L464.273 187.172L465.117 187.172ZM722.883 21.0234Q711.07 21.0234 693.211 32.8359Q673.031 42.6094 660.375 42.6094Q660.375 41.7656 659.812 41.7656Q659.25 41.7656 657.773 42.6094L657.773 41.7656Q656.93 41.7656 655.453 42.6094Q645.68 42.6094 630.984 38.039L630.141 39.4453L630.141 40.289Q630.141 41.4844 639.352 50.1328Q668.461 67.9922 691.805 67.9922Q692.367 67.3594 707.906 66.5156L747.914 53.0156L749.953 53.0156L749.953 53.8594Q741.305 63.3515 740.461 63.3515L740.461 63.914Q762.609 57.0234 762.609 50.9765Q762.609 47.8125 759.164 44.0859Q735.82 21.5859 724.922 21.0234L722.883 21.0234ZM737.578 80.6484Q702.422 98.2265 682.523 105.398Q643.711 118.055 639.352 120.375Q629.016 122.695 623.109 124.594Q617.203 126.422 617.203 126.984L614.602 126.984L614.602 126.422Q624.375 120.656 624.375 120.375L624.375 119.531Q609.961 121.219 607.992 121.781Q578.32 126.984 578.32 129.867L578.32 131.625Q593.578 154.617 618.609 154.617Q620.367 154.055 620.648 154.055L622.055 154.617Q643.992 151.172 651.727 149.484Q694.617 136.195 710.227 132.469Q707.625 135.352 679.078 156.937L628.734 196.383Q601.594 211.992 597.023 217.406L597.023 218.883Q597.023 221.766 599.906 226.336Q622.055 254.039 631.898 254.039Q670.43 244.477 745.031 192.937L745.594 192.937L746.508 196.383Q746.508 201.305 745.594 216Q745.594 221.766 749.953 230.414Q778.148 263.812 791.719 263.812L792.281 263.812Q796.008 260.93 796.008 256.922L796.008 252Q792 231.258 789.398 227.25Q782.508 203.344 773.297 186.891Q752.273 157.5 741.867 157.5L741.305 157.5L739.898 158.414Q745.031 171.352 745.031 177.117L745.031 180.844Q724.008 186.047 707.344 193.5Q682.523 204.187 661.5 209.953Q665.859 202.148 683.719 181.406Q742.43 125.578 762.047 116.648Q773.859 115.734 773.859 112.922L773.859 110.602Q773.859 107.437 770.695 103.992Q753.398 80.6484 741.867 80.6484L737.578 80.6484ZM960.469 -1.52588e-05Q959.625 -1.52588e-05 958.43 0.843735Q958.43 2.60155 960.469 8.92967Q952.734 33.3984 920.742 62.2265Q898.242 72.5625 895.711 76.9219Q895.711 78.3281 897.117 78.3281L900 78.3281Q905.203 78.3281 925.031 71.7187Q926.508 71.7187 928.195 90.1406Q927.352 91.2656 927.352 93.3047L927.352 100.477L926.789 105.68Q927.352 105.68 927.352 106.523Q926.227 106.523 925.945 109.406Q916.383 111.445 872.648 117.492L870.609 117.492Q860.273 117.492 846.703 116.086L845.297 116.93L845.297 117.492Q860.555 139.641 877.219 139.641Q914.414 132.469 921.586 131.625Q918.141 146.602 917.859 153.773L918.422 156.094Q925.594 169.312 933.398 169.312L934.875 169.312L937.758 167.062Q948.656 149.203 948.656 137.391L949.5 137.391Q954.984 142.242 966.516 147.164Q969.68 154.969 983.531 167.906L983.531 168.469Q966.516 174.234 948.656 182.602Q928.195 192.375 923.625 200.18L923.062 200.18L906.609 179.719L909.773 178.805L909.773 177.398L894.234 171.352L892.828 171.352L892.828 173.672Q897.68 190.055 897.68 195.82L897.117 200.18L897.68 201.867Q896.555 217.687 894.797 224.648L894.797 234.984L895.711 236.461L894.797 236.461Q894.797 243.914 907.453 254.32L906.609 255.727Q851.625 264.938 849.023 266.695L849.023 267.539Q855.914 277.945 866.039 280.758Q923.906 271.266 944.367 271.266L945.773 270.422L945.773 271.266L950.977 270.422L965.109 270.422L973.125 269.859Q974.32 270.422 979.172 270.422L981.211 270.422L982.617 269.859L982.617 270.422L986.414 269.859L992.461 270.422L993.867 269.859Q995.625 270.422 996.75 270.422L999.07 270.422Q1055.81 270.422 1101.02 283.641L1104.75 283.078L1104.75 281.672L1103.91 277.945Q1080.28 251.719 1063.27 246.797Q1059.54 247.641 1056.66 247.641L1055.25 246.797L1055.25 245.953Q1067.06 209.953 1070.79 194.977L1069.95 193.5Q1070.79 193.5 1070.79 192.937L1070.79 189.211Q1070.79 187.172 1067.62 182.602Q1049.77 160.102 1033.03 156.094L1019.81 156.094Q1019.25 151.453 1018.34 147.164L1018.97 147.164L1018.34 135.914L1018.34 123.539Q1018.34 122.133 1019.81 122.133L1057.5 122.133Q1073.39 122.133 1082.6 123.539L1089.21 122.133Q1089.21 118.969 1086.33 115.172Q1069.59 96.1875 1058.13 93.3047Q1032.47 97.5937 1022.7 99.0703L1021.85 99.0703Q1021.85 97.0312 1026.42 88.1015Q1036.83 81.2109 1036.83 77.7656L1033.03 70.2422Q1005.96 40.0078 992.461 40.0078L987.82 40.0078Q986.977 40.0078 986.414 38.6015Q990.141 38.6015 991.547 35.4375L991.547 31.0781Q986.133 17.0156 960.469 -1.52588e-05ZM933.398 68.8359Q939.164 67.3594 939.164 66.5156Q958.781 58.7109 974.602 46.6172L976.008 46.6172Q973.125 51.8203 972.562 51.8203Q967.078 66.5156 945.773 89.5781Q944.93 81.7734 933.398 69.3984L933.398 68.8359ZM967.992 81.2109Q986.133 71.4375 996.188 67.9922L993.023 81.2109L993.867 82.9687Q992.742 84.375 992.461 90.1406Q980.648 81.2109 974.602 81.2109Q973.406 82.0547 971.719 82.0547L967.992 82.0547L967.992 81.2109ZM952.383 91.5469Q952.383 97.0312 988.734 100.477L991.547 100.477L991.547 102.797Q968.836 105.68 950.414 107.156Q950.414 105.961 948.094 95.3437Q948.094 94.4297 951.82 91.5469L952.383 91.5469ZM991.547 123.539Q991.547 124.102 992.461 124.102Q992.461 125.016 991.547 125.016Q991.547 125.859 993.023 135.914Q992.461 135.914 992.461 136.758Q993.867 140.273 993.867 148.57L993.867 152.367L993.023 152.367L993.023 151.453Q980.648 130.711 959.906 130.711Q958.781 131.625 956.18 131.625L951.82 131.625Q950.414 131.625 950.414 130.148L950.414 127.828Q951.258 127.828 955.547 126.422L957.023 127.266Q957.023 125.859 979.805 125.016L981.211 124.102L981.211 125.016L991.547 123.539ZM971.719 149.203Q987.258 153.773 991.547 153.773L993.867 153.773L993.867 155.25Q993.867 161.016 987.258 161.859L984.375 161.859Q981.773 161.578 971.719 149.203ZM999.07 185.484Q1022.13 181.125 1035.35 181.125L1037.39 181.125Q1035.07 194.695 1031.62 203.906L1032.19 205.312L1031.62 205.312Q1023.54 237.867 1018.97 245.391Q1018.97 249.117 1001.95 249.117L1000.48 249.117L1000.48 247.641Q1013.2 223.734 1013.2 212.836Q1013.2 200.742 999.07 185.484ZM970.875 213.68Q979.172 192.094 985.852 188.367Q985.852 189.211 984.938 190.617Q984.938 191.531 985.852 192.937Q982.336 205.594 979.172 237.867Q976.008 236.18 976.008 234.984Q971.438 234.984 970.875 213.68ZM962.227 194.414Q963.914 194.414 971.719 192.094L972.562 192.094Q967.359 200.742 967.359 203.344Q966.516 203.344 962.227 195.82L962.227 194.414ZM928.195 210.516Q928.195 207.07 949.5 199.547L949.5 201.867Q944.367 223.734 944.367 236.461Q944.367 242.789 953.859 249.117L953.859 249.68Q938.039 251.156 935.438 251.156L934.875 251.156Q934.875 249.117 935.438 243.914L934.875 241.031L935.438 239.344Q933.117 221.484 928.195 210.516ZM968.836 247.641Q971.438 232.664 972.562 232.664Q972.562 234.141 978.328 241.594Q975.727 245.953 969.398 247.641L968.836 247.641Z" fill-rule="evenodd" fill="#000000"/>
</svg>
